<?xml version="1.0" encoding="UTF-8"?>
<!-- Generator: visioncortex VTracer 0.6.1 -->
<svg version="1.1" xmlns="http://www.w3.org/2000/svg" width="1280" height="613">
<path d="M0 0 C5.82184123 4.66690107 9.81553975 10.00681552 11.75 17.25 C13.0323724 32.23876833 9.98797545 42.23719532 0.7109375 53.7890625 C-4.32526273 59.67945924 -9.64263572 64.21216627 -16.25 68.25 C-17.21679688 68.84941406 -17.21679688 68.84941406 -18.203125 69.4609375 C-24.14652882 72.7822514 -30.63234465 73.8713218 -37.25 75.25 C-37.25 79.54 -37.25 83.83 -37.25 88.25 C-36.59 88.25 -35.93 88.25 -35.25 88.25 C-34.92 88.58 -34.59 88.91 -34.25 89.25 C-34.25 88.92 -34.25 88.59 -34.25 88.25 C-25.52766054 87.77423603 -18.14854128 89.67245599 -11.25 95.25 C-4.75344812 101.66090995 -1.2032967 106.32074199 -1.125 115.625 C-1.15683866 117.16690094 -1.19517276 118.70874525 -1.25 120.25 C-0.53972656 120.31058594 0.17054688 120.37117188 0.90234375 120.43359375 C2.28099609 120.55927734 2.28099609 120.55927734 3.6875 120.6875 C4.60402344 120.76871094 5.52054688 120.84992188 6.46484375 120.93359375 C8.75 121.25 8.75 121.25 9.75 122.25 C13.24545409 123.00701925 16.27467416 123.14805821 19.75 122.25 C21.73104928 120.03398906 22.86667517 117.76710748 24.19921875 115.11328125 C26.89662276 110.13293581 30.80227377 106.26567333 34.75 102.25 C35.36488281 101.62222656 35.97976563 100.99445313 36.61328125 100.34765625 C50.70594705 87.03959283 71.34725167 79.58042847 90.578125 80.00390625 C106.88221144 81.26887847 118.54094832 87.48675279 129.75 99.25 C138.44841964 109.48968747 139.74231958 121.17067661 138.75 134.25 C136.62042736 148.96179769 128.9296681 159.05568489 118.75 169.25 C118.09128906 169.9203125 117.43257813 170.590625 116.75390625 171.28125 C101.53185676 185.68490973 82.26576699 189.70929668 61.97265625 189.46484375 C48.861415 189.08782824 37.40445393 184.48936113 27.8515625 175.4765625 C17.75755555 164.78216852 14.11650542 154.08596713 14.51171875 139.65625 C14.75 136.25 14.75 136.25 15.75 133.25 C12.45158734 131.60079367 8.7537687 131.58513293 5.125 131.1875 C4.32320312 131.09662109 3.52140625 131.00574219 2.6953125 130.91210938 C0.71392132 130.68802347 -1.26799305 130.4685725 -3.25 130.25 C-3.36408203 131.52617187 -3.36408203 131.52617187 -3.48046875 132.828125 C-4.38817991 136.86444466 -6.19035148 139.69796927 -8.5625 143 C-8.95373047 143.57621094 -9.34496094 144.15242187 -9.74804688 144.74609375 C-11.91038765 147.82285724 -13.65719782 149.96744361 -17.25 151.25 C-17.25 151.91 -17.25 152.57 -17.25 153.25 C-19.19691221 154.83581566 -21.12082028 156.27288649 -23.1875 157.6875 C-24.07622803 158.29754883 -24.07622803 158.29754883 -24.98291016 158.91992188 C-34.28467199 165.11941635 -45.11827048 167.63200504 -56.2890625 165.94140625 C-65.65322906 163.89864405 -71.64443584 158.89160815 -77.25 151.25 C-78.75812868 147.94695096 -79.63686238 144.8266361 -80.25 141.25 C-85.0265855 141.73575446 -88.81340198 142.33861101 -93.25 144.25 C-93.37955078 145.55710937 -93.37955078 145.55710937 -93.51171875 146.890625 C-95.01536631 159.63714192 -98.59841951 169.67086215 -107.25 179.25 C-108.00410156 180.0853125 -108.75820312 180.920625 -109.53515625 181.78125 C-117.39333166 190.0503918 -126.04299325 196.50111155 -137.25 199.25 C-137.98992187 199.43304688 -138.72984375 199.61609375 -139.4921875 199.8046875 C-148.2761561 201.22306203 -160.3828022 202.00028895 -168.25 197.25 C-176.03472689 191.34962455 -182.61925238 184.86190907 -185.25 175.25 C-186.69951758 160.22079139 -183.24919474 147.60080099 -174.25 135.25 C-173.59 134.92 -172.93 134.59 -172.25 134.25 C-171.651875 133.26 -171.05375 132.27 -170.4375 131.25 C-163.04217647 120.68835027 -146.75448394 112.68681228 -134.35546875 110.49609375 C-124.32402738 109.32358762 -115.39630875 110.95512506 -107.25 117.25 C-106.26 117.95125 -105.27 118.6525 -104.25 119.375 C-100.14388522 122.81848779 -97.79005664 127.61124409 -95.25 132.25 C-93.6872038 132.10737588 -92.12477304 131.96074489 -90.5625 131.8125 C-89.69238281 131.73128906 -88.82226562 131.65007812 -87.92578125 131.56640625 C-87.04277344 131.46199219 -86.15976563 131.35757813 -85.25 131.25 C-84.38761719 131.23066406 -83.52523437 131.21132813 -82.63671875 131.19140625 C-79.86303708 130.39073394 -79.86303708 130.39073394 -78.40625 126.8984375 C-77.83474567 125.48163839 -77.28334181 124.0566017 -76.75 122.625 C-71.27437644 108.3988584 -71.27437644 108.3988584 -64.25 105.25 C-63.99347656 104.64929688 -63.73695313 104.04859375 -63.47265625 103.4296875 C-61.80974773 100.46514133 -59.75028174 99.3393162 -56.875 97.5625 C-55.91851562 96.96050781 -54.96203125 96.35851562 -53.9765625 95.73828125 C-51.25 94.25 -51.25 94.25 -47.25 93.25 C-47.25 87.31 -47.25 81.37 -47.25 75.25 C-48.9 75.1675 -50.55 75.085 -52.25 75 C-62.61518826 73.99264155 -68.55928011 69.0756349 -75.25 61.25 C-80.65449027 52.91128532 -80.80597645 45.9458234 -79.25 36.25 C-76.30244709 24.40651933 -67.81351516 13.5392646 -58.25 6.25 C-57.46367187 5.59257812 -56.67734375 4.93515625 -55.8671875 4.2578125 C-39.76026645 -8.09884036 -17.16552379 -11.80936411 0 0 Z M-79.25 42.25 C-78.25 45.25 -78.25 45.25 -78.25 45.25 Z M-79.25 46.25 C-78.25 49.25 -78.25 49.25 -78.25 49.25 Z M-46.25 76.25 C-46.25 81.53 -46.25 86.81 -46.25 92.25 C-45.92 92.25 -45.59 92.25 -45.25 92.25 C-45.25 86.97 -45.25 81.69 -45.25 76.25 C-45.58 76.25 -45.91 76.25 -46.25 76.25 Z M-130.25 111.25 C-130.25 111.58 -130.25 111.91 -130.25 112.25 C-127.94 112.25 -125.63 112.25 -123.25 112.25 C-123.25 111.92 -123.25 111.59 -123.25 111.25 C-125.56 111.25 -127.87 111.25 -130.25 111.25 Z M134.75 140.25 C135.75 143.25 135.75 143.25 135.75 143.25 Z M-184.25 158.25 C-183.25 160.25 -183.25 160.25 -183.25 160.25 Z " fill="#00669B" transform="translate(310.25,166.75)"/>
<path d="M0 0 C3.57046385 2.79127423 6.82026898 5.77393411 10 9 C10.57363281 9.56332031 11.14726563 10.12664062 11.73828125 10.70703125 C22.66699698 22.31349679 25.34812507 37.65685236 25.30078125 52.98046875 C24.94739789 57.70295553 23.92874525 62.35627375 23 67 C-6.37 67 -35.74 67 -66 67 C-62.95350822 81.02077581 -62.95350822 81.02077581 -53.75 91.4375 C-52.51684904 91.99705882 -51.2650874 92.51696663 -50 93 C-49.35160156 93.29519531 -48.70320312 93.59039062 -48.03515625 93.89453125 C-37.25291291 98.04446322 -22.09214884 97.56986113 -11.2109375 94 C-7.72361054 92.42269311 -4.95374557 90.42863525 -2 88 C2.29116051 91.62035841 4.37509072 96.12095686 6.8125 101.0625 C7.23208984 101.87783203 7.65167969 102.69316406 8.08398438 103.53320312 C8.47521484 104.31759766 8.86644531 105.10199219 9.26953125 105.91015625 C9.62635986 106.62308838 9.98318848 107.33602051 10.35083008 108.07055664 C11 110 11 110 10 113 C-6.25292195 125.05740023 -29.68413717 126.00471541 -49.03515625 123.5703125 C-60.47678549 121.48063501 -71.80939429 116.38562013 -80 108 C-80 107.34 -80 106.68 -80 106 C-80.66 106 -81.32 106 -82 106 C-96.90946662 88.44426441 -99.38208072 69.37893825 -98 47 C-97.30454204 41.79376697 -95.83394392 36.91598858 -94 32 C-93.566875 30.75476563 -93.566875 30.75476563 -93.125 29.484375 C-87.78901226 15.85854915 -75.79239034 2.96821262 -63 -4 C-41.91474721 -12.93250051 -19.4120747 -12.76072931 0 0 Z M-30 -9 C-26 -8 -26 -8 -26 -8 Z M-56.390625 25.0234375 C-59.75646785 29.15721537 -62.26298786 33.9710697 -64 39 C-63.67 40.32 -63.34 41.64 -63 43 C-44.19 43 -25.38 43 -6 43 C-6.495 37.555 -6.495 37.555 -7 32 C-7.66 32 -8.32 32 -9 32 C-9.2784375 30.700625 -9.2784375 30.700625 -9.5625 29.375 C-11.7377691 24.26784646 -15.10399587 21.53419266 -19.96875 18.95703125 C-32.1166689 14.12959333 -46.72577513 16.04893405 -56.390625 25.0234375 Z M-6 38 C-5 40 -5 40 -5 40 Z M-97 47 C-96 51 -96 51 -96 51 Z M-97 68 C-96 72 -96 72 -96 72 Z M-34 98 C-34 98.33 -34 98.66 -34 99 C-31.36 99 -28.72 99 -26 99 C-26 98.67 -26 98.34 -26 98 C-28.64 98 -31.28 98 -34 98 Z " fill="#00669B" transform="translate(577,191)"/>
<path d="M0 0 C11.61295587 9.73804702 15.15695658 22.28421777 16.49609375 37.11328125 C16.65910234 40.78202421 16.7033383 44.44917936 16.7421875 48.12109375 C16.77514042 50.26432678 16.80835181 52.40755585 16.84179688 54.55078125 C16.88898466 57.88766658 16.93343119 61.22453756 16.97290039 64.56152344 C16.66862964 87.54651741 16.66862964 87.54651741 23.49609375 109.11328125 C25.19327624 112.35005072 26.23724902 114.40750492 25.49609375 118.11328125 C19.04580342 123.39079152 12.59692436 123.91876157 4.49609375 123.11328125 C-1.27109101 121.30011331 -5.01662816 116.86440509 -8.50390625 112.11328125 C-8.83390625 111.45328125 -9.16390625 110.79328125 -9.50390625 110.11328125 C-10.21353516 110.80164063 -10.21353516 110.80164063 -10.9375 111.50390625 C-15.76801491 115.98602145 -20.27068081 118.96352066 -26.50390625 121.11328125 C-27.15488281 121.33886719 -27.80585937 121.56445312 -28.4765625 121.796875 C-41.69157915 125.48893167 -57.76553345 124.03731647 -69.75390625 117.48828125 C-78.11430023 112.08970156 -85.04456076 103.85829343 -87.50390625 94.11328125 C-88.94721421 78.44308059 -87.19815669 65.84924994 -77.50390625 53.11328125 C-67.39775497 41.48894133 -51.25902344 36.86283869 -36.50390625 35.11328125 C-33.46076777 34.95801558 -30.4256 34.92830753 -27.37890625 34.92578125 C-26.59386719 34.91353516 -25.80882812 34.90128906 -25 34.88867188 C-20.7075522 34.87781408 -17.41825213 35.12466778 -13.50390625 37.11328125 C-14.04431372 35.02410826 -14.61219527 32.94203055 -15.19140625 30.86328125 C-15.50464844 29.703125 -15.81789063 28.54296875 -16.140625 27.34765625 C-18.00187887 22.93184478 -20.15272119 21.16456815 -24.50341797 19.21923828 C-29.97651893 17.17685764 -35.0086793 16.63732405 -40.81640625 16.73828125 C-41.64092285 16.74480713 -42.46543945 16.75133301 -43.31494141 16.75805664 C-50.03611168 16.90456895 -56.08476767 18.13421776 -62.50390625 20.11328125 C-64.16665534 20.46563667 -65.83246971 20.80475443 -67.50390625 21.11328125 C-70.68499723 17.65557366 -70.93259972 14.68373351 -71.50390625 10.11328125 C-71.99310547 9.16195312 -71.99310547 9.16195312 -72.4921875 8.19140625 C-73.63641798 5.841095 -73.90000045 3.95754694 -74.12890625 1.36328125 C-74.20367188 0.5640625 -74.2784375 -0.23515625 -74.35546875 -1.05859375 C-74.40445313 -1.661875 -74.4534375 -2.26515625 -74.50390625 -2.88671875 C-51.60172968 -14.02678982 -21.09596768 -15.89602557 0 0 Z M-48.50390625 -9.88671875 C-48.50390625 -9.55671875 -48.50390625 -9.22671875 -48.50390625 -8.88671875 C-46.85390625 -8.88671875 -45.20390625 -8.88671875 -43.50390625 -8.88671875 C-43.50390625 -9.21671875 -43.50390625 -9.54671875 -43.50390625 -9.88671875 C-45.15390625 -9.88671875 -46.80390625 -9.88671875 -48.50390625 -9.88671875 Z M-32.50390625 -9.88671875 C-32.50390625 -9.55671875 -32.50390625 -9.22671875 -32.50390625 -8.88671875 C-30.85390625 -8.88671875 -29.20390625 -8.88671875 -27.50390625 -8.88671875 C-27.50390625 -9.21671875 -27.50390625 -9.54671875 -27.50390625 -9.88671875 C-29.15390625 -9.88671875 -30.80390625 -9.88671875 -32.50390625 -9.88671875 Z M-13.50390625 33.11328125 C-12.50390625 35.11328125 -12.50390625 35.11328125 -12.50390625 35.11328125 Z M-52.94140625 68.48828125 C-56.342793 74.20261098 -58.6318652 79.37116298 -57.50390625 86.11328125 C-56.08298981 90.8327537 -54.82599725 93.38287194 -50.4140625 95.8203125 C-46.12925434 97.48479782 -42.0539587 97.5569901 -37.50390625 97.48828125 C-36.35148438 97.50568359 -36.35148438 97.50568359 -35.17578125 97.5234375 C-29.13726896 97.49262876 -24.41224007 96.44348786 -19.578125 92.5703125 C-19.12050781 92.02761719 -18.66289063 91.48492187 -18.19140625 90.92578125 C-17.72089844 90.39597656 -17.25039063 89.86617187 -16.765625 89.3203125 C-13.15344337 83.00179045 -13.2379097 76.17395471 -13.37890625 69.11328125 C-13.38792969 68.24316406 -13.39695312 67.37304688 -13.40625 66.4765625 C-13.42956006 64.35534705 -13.46542046 62.23427563 -13.50390625 60.11328125 C-26.73094014 56.99957271 -42.83404078 58.640079 -52.94140625 68.48828125 Z M-42.50390625 98.11328125 C-42.50390625 98.44328125 -42.50390625 98.77328125 -42.50390625 99.11328125 C-39.20390625 99.11328125 -35.90390625 99.11328125 -32.50390625 99.11328125 C-32.50390625 98.78328125 -32.50390625 98.45328125 -32.50390625 98.11328125 C-35.80390625 98.11328125 -39.10390625 98.11328125 -42.50390625 98.11328125 Z " fill="#91B241" transform="translate(898.50390625,191.88671875)"/>
<path d="M0 0 C1.9921875 2.3515625 1.9921875 2.3515625 3 5 C2.04229294 9.92342361 -0.59820325 14.0981956 -3.125 18.375 C-3.49753906 19.01566406 -3.87007812 19.65632813 -4.25390625 20.31640625 C-5.16434002 21.88048477 -6.08148191 23.44065534 -7 25 C-10.87688786 24.38082372 -14.02714562 23.19146301 -17.5625 21.5 C-27.18509455 16.90891466 -38.69381483 16.20635052 -48.9375 19.5 C-57.96862877 23.39764505 -63.3348355 29.26293123 -67.02734375 38.2890625 C-67.34832031 39.18367188 -67.66929687 40.07828125 -68 41 C-68.35707031 41.96679688 -68.71414063 42.93359375 -69.08203125 43.9296875 C-72.75366766 56.21013951 -71.64566671 70.28488813 -65.9375 81.6875 C-65.14666016 83.11642578 -65.14666016 83.11642578 -64.33984375 84.57421875 C-63 87 -63 87 -62 90 C-59.7327303 91.13495649 -59.7327303 91.13495649 -57 92 C-56.12085938 92.35320312 -55.24171875 92.70640625 -54.3359375 93.0703125 C-42.80673304 97.17702121 -28.7714744 98.27026217 -17.08984375 94 C-13.52612745 92.2947451 -10.22399763 90.27841173 -7 88 C-3.16758439 91.48282082 -1.39366282 95.82899452 0.8125 100.4375 C1.24498047 101.29666016 1.67746094 102.15582031 2.12304688 103.04101562 C2.52201172 103.87181641 2.92097656 104.70261719 3.33203125 105.55859375 C3.70046143 106.31454834 4.0688916 107.07050293 4.44848633 107.84936523 C5 110 5 110 4.25415039 112.17773438 C-0.63612963 119.28325318 -13.03826369 121.45002613 -21 123 C-22.32257813 123.27457031 -22.32257813 123.27457031 -23.671875 123.5546875 C-43.25852092 126.1754359 -63.86974656 124.15837641 -80.29296875 112.3515625 C-82.25 110.75 -82.25 110.75 -85 108 C-85 107.34 -85 106.68 -85 106 C-85.66 106 -86.32 106 -87 106 C-94.36440426 97.59515011 -99.35042443 87.81910025 -102 77 C-102.1755542 76.39583252 -102.3511084 75.79166504 -102.53198242 75.16918945 C-106.74397524 55.64725091 -102.5464866 34.61017499 -92 18 C-82.22226855 3.32284372 -67.68127733 -4.98659332 -50.6875 -8.875 C-33.0339528 -11.95474655 -15.02163253 -10.72973752 0 0 Z M-43 -9 C-39 -8 -39 -8 -39 -8 Z M-102 46 C-101 48 -101 48 -101 48 Z M-102 70 C-101 73 -101 73 -101 73 Z M-38 98 C-38 98.33 -38 98.66 -38 99 C-35.69 99 -33.38 99 -31 99 C-31 98.67 -31 98.34 -31 98 C-33.31 98 -35.62 98 -38 98 Z " fill="#91B241" transform="translate(1043,191)"/>
<path d="M0 0 C0.56847656 0.45375 1.13695312 0.9075 1.72265625 1.375 C1.14655312 6.92455043 -0.29832923 11.63529497 -2.33984375 16.8125 C-2.76233398 17.90981445 -2.76233398 17.90981445 -3.19335938 19.02929688 C-3.88147622 20.81373546 -4.57848981 22.59473905 -5.27734375 24.375 C-9.14302058 23.5315796 -12.48653468 21.97619875 -16.05859375 20.3125 C-20.876717 18.27667328 -25.4730171 18.19194959 -30.65234375 18.1875 C-31.76609375 18.16913086 -31.76609375 18.16913086 -32.90234375 18.15039062 C-37.38754949 18.13850404 -41.11720816 18.48924175 -45.27734375 20.375 C-47.67192178 24.8518198 -47.59824704 28.53168794 -46.27734375 33.375 C-42.96970925 37.22009737 -39.93471595 39.28844408 -35.26953125 41.20703125 C-34.11710937 41.69623047 -32.9646875 42.18542969 -31.77734375 42.68945312 C-29.38483158 43.67816909 -26.99161574 44.66518422 -24.59765625 45.65039062 C-11.71294124 51.12639451 1.36450204 58.96325662 7.22265625 72.3125 C10.36261684 82.27907135 10.45017501 95.2741648 6.23828125 104.9140625 C-0.17097267 115.32084078 -9.54383268 120.93209634 -21.02734375 124.1875 C-39.52247627 127.98697232 -58.73202211 126.04367118 -75.3359375 116.9375 C-77.67176683 115.05755687 -77.9302703 114.31087878 -78.27734375 111.375 C-77.56469727 108.99316406 -77.56469727 108.99316406 -76.40625 106.390625 C-75.99697266 105.45605469 -75.58769531 104.52148438 -75.16601562 103.55859375 C-74.72837891 102.59050781 -74.29074219 101.62242187 -73.83984375 100.625 C-73.40607422 99.64144531 -72.97230469 98.65789062 -72.52539062 97.64453125 C-71.45286709 95.21662082 -70.36992004 92.79393666 -69.27734375 90.375 C-64.75983762 92.16183839 -60.38642156 94.17589997 -55.99609375 96.25390625 C-50.28919968 98.6071801 -44.80268118 98.55786341 -38.71484375 98.5625 C-37.86470703 98.57474609 -37.01457031 98.58699219 -36.13867188 98.59960938 C-35.31689453 98.60154297 -34.49511719 98.60347656 -33.6484375 98.60546875 C-32.9052124 98.60957764 -32.1619873 98.61368652 -31.39624023 98.61791992 C-28.95236599 98.33774307 -27.35921664 97.67253142 -25.27734375 96.375 C-23.38417399 92.01471308 -22.57686594 86.86911992 -24.27734375 82.375 C-27.07367235 77.40449246 -29.99023325 74.94225524 -35.02734375 72.5 C-35.67985107 72.16540771 -36.3323584 71.83081543 -37.00463867 71.48608398 C-40.4616933 69.72441473 -43.95613124 68.04988426 -47.46875 66.40234375 C-55.92817159 62.39593138 -62.74214437 58.2594085 -69.27734375 51.375 C-69.8703125 50.7665625 -70.46328125 50.158125 -71.07421875 49.53125 C-72.59440039 47.87560663 -73.9500091 46.18764138 -75.27734375 44.375 C-75.68984375 43.84261719 -76.10234375 43.31023437 -76.52734375 42.76171875 C-80.82716332 36.02832074 -80.18260423 27.05611572 -79.27734375 19.375 C-78.43255898 15.94840109 -77.19380376 13.32200927 -75.27734375 10.375 C-74.88804688 9.69308594 -74.49875 9.01117188 -74.09765625 8.30859375 C-68.52330027 -0.38278377 -58.10532293 -5.28500496 -48.27734375 -7.625 C-32.85802703 -10.73073471 -13.12950633 -9.36856712 0 0 Z M-30.27734375 -7.625 C-30.27734375 -7.295 -30.27734375 -6.965 -30.27734375 -6.625 C-28.62734375 -6.625 -26.97734375 -6.625 -25.27734375 -6.625 C-25.27734375 -6.955 -25.27734375 -7.285 -25.27734375 -7.625 C-26.92734375 -7.625 -28.57734375 -7.625 -30.27734375 -7.625 Z M-22.27734375 90.375 C-21.27734375 92.375 -21.27734375 92.375 -21.27734375 92.375 Z M-43.27734375 100.375 C-43.27734375 100.705 -43.27734375 101.035 -43.27734375 101.375 C-39.97734375 101.375 -36.67734375 101.375 -33.27734375 101.375 C-33.27734375 101.045 -33.27734375 100.715 -33.27734375 100.375 C-36.57734375 100.375 -39.87734375 100.375 -43.27734375 100.375 Z " fill="#91B241" transform="translate(1143.27734375,189.625)"/>
<path d="M0 0 C0 11.55 0 23.1 0 35 C10.4412655 34.92085685 10.4412655 34.92085685 20.88232422 34.81982422 C22.82389404 34.81233154 22.82389404 34.81233154 24.8046875 34.8046875 C25.48539307 34.79445557 26.16609863 34.78422363 26.86743164 34.77368164 C28.57995007 34.77304431 30.29187236 34.87744494 32 35 C34 37 34 37 34.22705078 39.43017578 C34.21657715 40.4251709 34.20610352 41.42016602 34.1953125 42.4453125 C34.19031738 43.41484863 34.18532227 44.38438477 34.18017578 45.38330078 C34.16196777 46.61806152 34.14375977 47.85282227 34.125 49.125 C34.08375 53.04375 34.0425 56.9625 34 61 C23.11 61 12.22 61 1 61 C0.91259215 72.13083685 0.91259215 72.13083685 0.85351562 83.26171875 C0.83565417 87.80853923 0.81463496 92.35517668 0.77368164 96.90185547 C0.74083627 100.57178362 0.72309459 104.24151522 0.71536827 107.91157913 C0.70986953 109.30447097 0.69913314 110.69735333 0.68280983 112.09016037 C0.43751138 123.89833143 0.43751138 123.89833143 4 135 C8.49051072 138.98198072 12.77717463 139.22262886 18.5625 139.25 C19.27615723 139.25394775 19.98981445 139.25789551 20.72509766 139.26196289 C25.89552932 139.20531822 30.31853838 138.4124218 35.1796875 136.55859375 C37 136 37 136 39 137 C38.67 145.91 38.34 154.82 38 164 C22.54132443 167.7857981 2.63413024 170.85196781 -12 163 C-21.18721571 156.44778598 -26.90453561 148.79738616 -30 138 C-30.17282941 135.40817289 -30.25405262 132.92992309 -30.22705078 130.34228516 C-30.22734283 129.60013763 -30.22763489 128.85799011 -30.22793579 128.09335327 C-30.22655072 125.65846765 -30.21102871 123.22389418 -30.1953125 120.7890625 C-30.19157944 119.09370084 -30.18873385 117.39833701 -30.18673706 115.70297241 C-30.1791237 111.25435362 -30.15949505 106.80586672 -30.1373291 102.3572998 C-30.11682107 97.81243676 -30.10772476 93.26755229 -30.09765625 88.72265625 C-30.0762469 79.81504642 -30.04213882 70.9075342 -30 62 C-30.99902344 61.95101562 -31.99804688 61.90203125 -33.02734375 61.8515625 C-34.31769531 61.77679688 -35.60804688 61.70203125 -36.9375 61.625 C-38.22527344 61.55539063 -39.51304687 61.48578125 -40.83984375 61.4140625 C-41.88269531 61.27742188 -42.92554688 61.14078125 -44 61 C-45.25248502 58.49502996 -45.11374406 56.79146726 -45.09765625 53.9921875 C-45.09443359 53.00605469 -45.09121094 52.01992187 -45.08789062 51.00390625 C-45.07951172 49.97136719 -45.07113281 48.93882812 -45.0625 47.875 C-45.05798828 46.83472656 -45.05347656 45.79445312 -45.04882812 44.72265625 C-45.03701952 42.14838038 -45.02055075 39.57421854 -45 37 C-40.51793698 34.75896849 -35.01109879 36 -30 36 C-30 27.42 -30 18.84 -30 10 C-25.75306065 8.32515068 -21.50279865 6.65984757 -17.25 5 C-15.44015625 4.28457031 -15.44015625 4.28457031 -13.59375 3.5546875 C-12.43359375 3.10351562 -11.2734375 2.65234375 -10.078125 2.1875 C-9.00981445 1.76855469 -7.94150391 1.34960938 -6.84082031 0.91796875 C-4 0 -4 0 0 0 Z M16 141 C16 141.33 16 141.66 16 142 C17.98 142 19.96 142 22 142 C22 141.67 22 141.34 22 141 C20.02 141 18.04 141 16 141 Z " fill="#92B341" transform="translate(661,148)"/>
<path d="M0 0 C1.85546875 1.29296875 1.85546875 1.29296875 3 3 C2.54456721 6.67148899 1.38603613 9.58435949 -0.28515625 12.86328125 C-0.73310547 13.74951172 -1.18105469 14.63574219 -1.64257812 15.54882812 C-2.11115234 16.46083984 -2.57972656 17.37285156 -3.0625 18.3125 C-3.53494141 19.24384766 -4.00738281 20.17519531 -4.49414062 21.13476562 C-5.65737644 23.42598769 -6.82613132 25.7142124 -8 28 C-11.07120458 27.52978799 -13.7900894 27.08298791 -16.6875 25.9375 C-23.07793989 24.12888494 -29.48479192 23.88550328 -35.5 26.9375 C-36.1084375 27.29714844 -36.716875 27.65679687 -37.34375 28.02734375 C-39 29 -39 29 -42 30 C-43.07962178 31.74975317 -43.07962178 31.74975317 -44 34 C-44.48597656 34.94875 -44.97195313 35.8975 -45.47265625 36.875 C-45.99730469 37.90625 -46.52195312 38.9375 -47.0625 40 C-47.58972656 41.03125 -48.11695313 42.0625 -48.66015625 43.125 C-50.92798151 47.99123729 -51.16245664 52.28924429 -51.20532227 57.61425781 C-51.22017166 58.75630173 -51.22017166 58.75630173 -51.23532104 59.92141724 C-51.26684776 62.43195512 -51.29165847 64.94251191 -51.31640625 67.453125 C-51.33698341 69.19619227 -51.35798008 70.93925464 -51.37937927 72.68231201 C-51.43452129 77.26566592 -51.48396523 81.84906428 -51.53222656 86.43249512 C-51.5824991 91.11128689 -51.63815512 95.79001428 -51.69335938 100.46875 C-51.80084469 109.64578032 -51.90181337 118.82286547 -52 128 C-61.9 128 -71.8 128 -82 128 C-83.25133481 125.49733038 -83.12306118 123.81506224 -83.12025452 121.01400757 C-83.12162918 119.95948898 -83.12300385 118.9049704 -83.12442017 117.8184967 C-83.12082489 116.65684494 -83.11722961 115.49519318 -83.11352539 114.29833984 C-83.11367142 113.07885147 -83.11381744 111.8593631 -83.1139679 110.60292053 C-83.11338955 107.25394819 -83.10836546 103.90503707 -83.10139394 100.55607557 C-83.09515348 97.0580256 -83.09455605 93.55997485 -83.09336853 90.06192017 C-83.09025726 83.43565139 -83.08204662 76.80939906 -83.07201904 70.18313754 C-83.06085157 62.64031071 -83.05534585 55.0974831 -83.05032361 47.55465007 C-83.03986384 32.03642384 -83.02226834 16.51821404 -83 1 C-80.10352978 -0.44823511 -77.68835083 -0.00519634 -74.4609375 0.12109375 C-72.50800781 0.19360352 -72.50800781 0.19360352 -70.515625 0.26757812 C-69.13541196 0.32410394 -67.75520368 0.38074608 -66.375 0.4375 C-64.98699781 0.49072293 -63.59897703 0.54346332 -62.2109375 0.59570312 C-58.80707859 0.72571163 -55.40348883 0.86068883 -52 1 C-51.93941406 1.63808594 -51.87882813 2.27617187 -51.81640625 2.93359375 C-51.69072266 4.17302734 -51.69072266 4.17302734 -51.5625 5.4375 C-51.48128906 6.26121094 -51.40007813 7.08492187 -51.31640625 7.93359375 C-51.21069185 9.98662025 -51.21069185 9.98662025 -50 11 C-49.92394531 10.401875 -49.84789062 9.80375 -49.76953125 9.1875 C-48.19280308 4.70543007 -43.02871209 3.01166665 -39 1 C-27.12895712 -4.45833566 -12.15981269 -5.4018912 0 0 Z M-27 -2 C-23 -1 -23 -1 -23 -1 Z M-15 -2 C-11 -1 -11 -1 -11 -1 Z " fill="#91B241" transform="translate(805,184)"/>
<path d="M0 0 C0.33 0 0.66 0 1 0 C1 22.44 1 44.88 1 68 C0.67 68 0.34 68 0 68 C0 45.56 0 23.12 0 0 Z " fill="#92B341" transform="translate(630,210)"/>
<path d="M0 0 C0.33 0 0.66 0 1 0 C1 7.92 1 15.84 1 24 C-3.29 24 -7.58 24 -12 24 C-12 23.67 -12 23.34 -12 23 C-8.04 23 -4.08 23 0 23 C0 15.41 0 7.82 0 0 Z " fill="#92B341" transform="translate(630,160)"/>
<path d="M0 0 C8.58 0 17.16 0 26 0 C26 0.33 26 0.66 26 1 C17.42 1 8.84 1 0 1 C0 0.67 0 0.34 0 0 Z " fill="#92B341" transform="translate(724,183)"/>
<path d="M0 0 C0.33 0 0.66 0 1 0 C1 2.97 1 5.94 1 9 C0.67 9 0.34 9 0 9 C0 6.03 0 3.06 0 0 Z " fill="#92B341" transform="translate(810,271)"/>
<path d="M0 0 C0.33 0 0.66 0 1 0 C1 2.64 1 5.28 1 8 C0.67 8 0.34 8 0 8 C0 5.36 0 2.72 0 0 Z " fill="#92B341" transform="translate(1063,213)"/>
<path d="M0 0 C0.66 0.66 1.32 1.32 2 2 C1.01 2.495 1.01 2.495 0 3 C0 2.01 0 1.02 0 0 Z " fill="#497348" transform="translate(924,305)"/>
<path d="" fill="#00679C" transform="translate(0,0)"/>
<path d="" fill="#495A21" transform="translate(0,0)"/>
<path d="" fill="#000102" transform="translate(0,0)"/>
<path d="" fill="#000102" transform="translate(0,0)"/>
<path d="" fill="#000102" transform="translate(0,0)"/>
<path d="" fill="#00679C" transform="translate(0,0)"/>
<path d="" fill="#00679C" transform="translate(0,0)"/>
<path d="" fill="#00679C" transform="translate(0,0)"/>
<path d="" fill="#00679C" transform="translate(0,0)"/>
<path d="" fill="#00679C" transform="translate(0,0)"/>
<path d="" fill="#00679C" transform="translate(0,0)"/>
<path d="" fill="#00679C" transform="translate(0,0)"/>
</svg>
